<svg width="88" height="88" xmlns="http://www.w3.org/2000/svg"><g transform="matrix(1 0 0 1 44 44)"  ><g style=""   ><g transform="matrix(1 0 0 1 -1 0)"  ><circle style="stroke: none; stroke-width: 1; stroke-dasharray: none; stroke-linecap: butt; stroke-dashoffset: 0; stroke-linejoin: miter; stroke-miterlimit: 4; fill: rgb(192,209,252); fill-rule: nonzero; opacity: 1;"  cx="0" cy="0" r="32" /></g><g transform="matrix(1 0 0 1 -7.59 0.06)"  ><path style="stroke: none; stroke-width: 1; stroke-dasharray: none; stroke-linecap: butt; stroke-dashoffset: 0; stroke-linejoin: miter; stroke-miterlimit: 4; fill: rgb(94,138,247); fill-rule: evenodd; opacity: 1;"  transform=" translate(-36.41, -44.06)" d="M 61.8293 69.8767 C 60.8971 69.9584 59.9534 70 59 70 C 41.3269 70 27 55.6732 27 38 C 27 27.3653 32.1878 17.9422 40.1707 12.1234 C 23.8228 13.5556 11 27.2804 11 44 C 11 61.6732 25.3269 76 43 76 C 50.0384 76 56.546 73.7277 61.8293 69.8767 Z" stroke-linecap="round" /></g><g transform="matrix(0.94 -0.35 0.35 0.94 23.8 -6.79)"  ><rect style="stroke: none; stroke-width: 1; stroke-dasharray: none; stroke-linecap: butt; stroke-dashoffset: 0; stroke-linejoin: miter; stroke-miterlimit: 4; fill: rgb(45,102,245); fill-rule: nonzero; opacity: 1;"  x="-15" y="-3" rx="3" ry="3" width="30" height="6" /></g><g transform="matrix(0.94 -0.35 0.35 0.94 -18.22 12.13)"  ><rect style="stroke: none; stroke-width: 1; stroke-dasharray: none; stroke-linecap: butt; stroke-dashoffset: 0; stroke-linejoin: miter; stroke-miterlimit: 4; fill: rgb(45,102,245); fill-rule: nonzero; opacity: 1;"  x="-20" y="-3" rx="3" ry="3" width="40" height="6" /></g><g transform="matrix(0.94 -0.35 0.35 0.94 23.67 -17.08)"  ><rect style="stroke: none; stroke-width: 1; stroke-dasharray: none; stroke-linecap: butt; stroke-dashoffset: 0; stroke-linejoin: miter; stroke-miterlimit: 4; fill: rgb(45,102,245); fill-rule: nonzero; opacity: 1;"  x="-6" y="-3" rx="3" ry="3" width="12" height="6" /></g><g transform="matrix(0.94 -0.35 0.35 0.94 27.91 2.22)"  ><rect style="stroke: none; stroke-width: 1; stroke-dasharray: none; stroke-linecap: butt; stroke-dashoffset: 0; stroke-linejoin: miter; stroke-miterlimit: 4; fill: rgb(45,102,245); fill-rule: nonzero; opacity: 1;"  x="-10" y="-3" rx="3" ry="3" width="20" height="6" /></g><g transform="matrix(-0.94 0.35 -0.35 -0.94 -15.8 0.51)"  ><rect style="stroke: none; stroke-width: 1; stroke-dasharray: none; stroke-linecap: butt; stroke-dashoffset: 0; stroke-linejoin: miter; stroke-miterlimit: 4; fill: rgb(45,102,245); fill-rule: nonzero; opacity: 1;"  x="-22" y="-3" rx="3" ry="3" width="44" height="6" /></g></g></g></svg>